<?xml version="1.0" standalone="no"?>
<!DOCTYPE svg PUBLIC "-//W3C//DTD SVG 20010904//EN"
 "http://www.w3.org/TR/2001/REC-SVG-20010904/DTD/svg10.dtd">
<svg version="1.0" xmlns="http://www.w3.org/2000/svg"
 width="300.000000pt" height="300.000000pt" viewBox="0 0 300.000000 300.000000"
 preserveAspectRatio="xMidYMid meet">
<metadata>
Created by potrace 1.11, written by Peter Selinger 2001-2013
</metadata>
<g transform="translate(0.000000,300.000000) scale(0.100000,-0.100000)"
fill="#000000" stroke="none">
<path d="M1275 2778 c-14 -16 -25 -34 -25 -39 0 -19 21 -49 34 -49 11 0 10
-13 -5 -65 -10 -36 -18 -69 -19 -73 0 -4 -12 -10 -26 -14 -82 -22 -85 -108 -4
-108 25 0 27 -5 34 -105 3 -44 10 -96 16 -115 9 -29 8 -37 -6 -45 -40 -25 -64
-47 -58 -56 8 -14 -5 -61 -14 -55 -5 3 -34 -15 -65 -39 -59 -47 -129 -133
-142 -175 -4 -14 -11 -29 -15 -35 -4 -5 -15 -34 -25 -63 -11 -35 -24 -56 -39
-62 -33 -13 -77 -64 -82 -97 -6 -40 21 -100 53 -117 23 -12 27 -21 29 -62 3
-79 14 -165 30 -229 8 -33 17 -71 20 -85 3 -14 9 -29 15 -34 5 -6 9 -19 9 -31
0 -11 6 -29 14 -40 7 -11 17 -31 21 -45 12 -40 88 -152 131 -193 75 -72 117
-89 232 -95 l103 -5 -2 -141 c-2 -155 -6 -172 -43 -209 -14 -15 -26 -35 -26
-46 0 -15 -16 -25 -70 -46 -39 -15 -78 -34 -87 -43 -25 -25 -53 -93 -53 -129
l0 -33 414 0 c228 0 417 3 420 8 7 12 -31 110 -56 141 -21 27 -74 59 -108 65
-8 1 -41 8 -72 15 -55 12 -58 14 -58 42 0 16 -5 29 -12 29 -10 0 -13 28 -13
108 -1 105 -9 214 -21 279 -6 30 -1 37 53 91 65 63 110 136 139 222 16 46 19
83 18 235 -2 191 -9 370 -18 395 -3 8 -7 33 -10 55 -23 177 -122 347 -234 404
-37 18 -100 37 -115 33 -4 -1 -13 9 -19 23 -6 14 -20 25 -32 26 -37 1 -66 6
-69 10 -5 6 -44 137 -58 193 -9 38 -10 51 -1 54 17 5 15 22 -3 22 -11 0 -15
12 -15 45 0 44 0 44 27 34 15 -6 33 -15 40 -21 8 -7 13 -7 13 0 0 14 -46 42
-70 42 -16 0 -20 6 -20 34 0 53 11 96 25 96 34 0 51 69 23 96 -8 8 -28 18 -46
23 -28 9 -34 6 -57 -21z m-17 -293 c0 -38 -4 -45 -20 -45 -54 0 -76 45 -35 73
42 30 56 22 55 -28z"/>
<path d="M1397 2468 c-10 -11 -16 -22 -14 -25 6 -6 47 28 47 39 0 13 -14 7
-33 -14z"/>
</g>
</svg>
